<svg id="图层_1" data-name="图层 1" xmlns="http://www.w3.org/2000/svg" viewBox="0 0 60.41 68.39"><defs><style>.cls-1{fill:#8a8ca0;}.cls-2{fill:#15cea3;}.cls-3{fill:none;stroke:#8a8ca0;stroke-miterlimit:10;stroke-width:2px;}</style></defs><title>lock</title><path class="cls-1" d="M42.22,25.54h-2v-7.8a15.56,15.56,0,1,0-31.12,0v7.8h-2v-7.8a17.56,17.56,0,1,1,35.12,0Z" transform="translate(-0.47 -0.17)"/><path class="cls-1" d="M37.62,25.42h-2V17.85a11,11,0,0,0-21.91,0v7.56h-2V17.85a13,13,0,0,1,25.91,0Z" transform="translate(-0.47 -0.17)"/><path class="cls-1" d="M39.28,64h-35A3.82,3.82,0,0,1,.47,60.19V27.73a3.82,3.82,0,0,1,3.82-3.82H45a3.82,3.82,0,0,1,3.82,3.82V44.5h-2V27.73A1.82,1.82,0,0,0,45,25.91H4.29a1.82,1.82,0,0,0-1.82,1.82V60.19A1.82,1.82,0,0,0,4.29,62h35Z" transform="translate(-0.47 -0.17)"/><path class="cls-2" d="M48.08,68.56a12.8,12.8,0,1,1,12.8-12.8A12.82,12.82,0,0,1,48.08,68.56Zm0-23.6a10.8,10.8,0,1,0,10.8,10.8A10.81,10.81,0,0,0,48.08,45Z" transform="translate(-0.47 -0.17)"/><path class="cls-1" d="M25.1,52.12a2.49,2.49,0,0,1-2.49-2.49V48a5.08,5.08,0,1,1,5,0v1.64A2.49,2.49,0,0,1,25.1,52.12Zm0-11.63A3.08,3.08,0,0,0,24,46.43l.63.25v3a.49.49,0,0,0,1,0v-3l.63-.25a3.08,3.08,0,0,0-1.12-5.94Z" transform="translate(-0.47 -0.17)"/><path class="cls-3" d="M24.66,29.4" transform="translate(-0.47 -0.17)"/><polygon class="cls-2" points="46.31 60.16 41.89 55.74 43.3 54.32 46.31 57.33 51.91 51.73 53.33 53.14 46.31 60.16"/></svg>