<svg id="组_1_拷贝" data-name="组 1 拷贝" xmlns="http://www.w3.org/2000/svg" width="48" height="48" viewBox="0 0 48 48">
  <metadata><?xpacket begin="﻿" id="W5M0MpCehiHzreSzNTczkc9d"?>
<x:xmpmeta xmlns:x="adobe:ns:meta/" x:xmptk="Adobe XMP Core 5.6-c138 79.159824, 2016/09/14-01:09:01        ">
   <rdf:RDF xmlns:rdf="http://www.w3.org/1999/02/22-rdf-syntax-ns#">
      <rdf:Description rdf:about=""/>
   </rdf:RDF>
</x:xmpmeta>
                                                                                                    
                                                                                                    
                                                                                                    
                                                                                                    
                                                                                                    
                                                                                                    
                                                                                                    
                                                                                                    
                                                                                                    
                                                                                                    
                                                                                                    
                                                                                                    
                                                                                                    
                                                                                                    
                                                                                                    
                                                                                                    
                                                                                                    
                                                                                                    
                                                                                                    
                                                                                                    
                           
<?xpacket end="w"?></metadata>
<defs>
    <style>
      .cls-1 {
        fill: none;
        stroke: #040000;
        stroke-linecap: square;
        stroke-width: 2px;
        fill-rule: evenodd;
      }
    </style>
  </defs>
  <path id="圆角矩形_2_拷贝_8" data-name="圆角矩形 2 拷贝 8" class="cls-1" d="M8,14H40a2,2,0,0,1,2,2V37a2,2,0,0,1-2,2H8a2,2,0,0,1-2-2V16A2,2,0,0,1,8,14Z"/>
  <path id="圆角矩形_2_拷贝_10" data-name="圆角矩形 2 拷贝 10" class="cls-1" d="M21,23h6a2,2,0,0,1,2,2v3a2,2,0,0,1-2,2H21a2,2,0,0,1-2-2V25A2,2,0,0,1,21,23Z"/>
  <path id="圆角矩形_2_拷贝_9" data-name="圆角矩形 2 拷贝 9" class="cls-1" d="M16.1,14V12c0-1.1.832-3,1.858-3H30.04c1.026,0,1.858,1.9,1.858,3v2"/>
  <path id="形状_21" data-name="形状 21" class="cls-1" d="M6.309,21.061L18.314,25.93"/>
  <path id="形状_21_拷贝" data-name="形状 21 拷贝" class="cls-1" d="M41.36,21.07L29.355,25.939"/>
</svg>
