<svg id="用户管理" xmlns="http://www.w3.org/2000/svg" width="30" height="30" viewBox="0 0 30 30">
  <metadata><?xpacket begin="﻿" id="W5M0MpCehiHzreSzNTczkc9d"?>
<x:xmpmeta xmlns:x="adobe:ns:meta/" x:xmptk="Adobe XMP Core 5.6-c138 79.159824, 2016/09/14-01:09:01        ">
   <rdf:RDF xmlns:rdf="http://www.w3.org/1999/02/22-rdf-syntax-ns#">
      <rdf:Description rdf:about=""/>
   </rdf:RDF>
</x:xmpmeta>
                                                                                                    
                                                                                                    
                                                                                                    
                                                                                                    
                                                                                                    
                                                                                                    
                                                                                                    
                                                                                                    
                                                                                                    
                                                                                                    
                                                                                                    
                                                                                                    
                                                                                                    
                                                                                                    
                                                                                                    
                                                                                                    
                                                                                                    
                                                                                                    
                                                                                                    
                                                                                                    
                           
<?xpacket end="w"?></metadata>
<defs>
    <style>
      .cls-1 {
        fill: none;
        stroke: #000;
        stroke-linecap: square;
        stroke-width: 2px;
        fill-rule: evenodd;
      }
    </style>
  </defs>
  <path id="椭圆_1" data-name="椭圆 1" class="cls-1" d="M12,5a5.026,5.026,0,0,1,5.125,4.922A5.026,5.026,0,0,1,12,14.844,5.027,5.027,0,0,1,6.875,9.922,5.027,5.027,0,0,1,12,5Z"/>
  <path id="椭圆_1_拷贝" data-name="椭圆 1 拷贝" class="cls-1" d="M5.429,24A6.392,6.392,0,0,1,5,21.766a6.856,6.856,0,0,1,7-6.7,6.856,6.856,0,0,1,7,6.7A6.392,6.392,0,0,1,18.571,24H5.429Z"/>
  <path id="椭圆_1_拷贝_2" data-name="椭圆 1 拷贝 2" class="cls-1" d="M16.141,3.3a5.031,5.031,0,0,1,6.715,2.342,5.031,5.031,0,0,1-2.623,6.61"/>
  <path id="椭圆_1_拷贝_3" data-name="椭圆 1 拷贝 3" class="cls-1" d="M19.153,12a6.686,6.686,0,0,1,6.858,6.5A6.194,6.194,0,0,1,25.826,20"/>
  <path id="形状_1" data-name="形状 1" class="cls-1" d="M22,20h4"/>
</svg>
