<svg xmlns="http://www.w3.org/2000/svg" width="145" height="28" viewBox="0 0 145 28">
  <metadata><?xpacket begin="﻿" id="W5M0MpCehiHzreSzNTczkc9d"?>
<x:xmpmeta xmlns:x="adobe:ns:meta/" x:xmptk="Adobe XMP Core 5.6-c138 79.159824, 2016/09/14-01:09:01        ">
   <rdf:RDF xmlns:rdf="http://www.w3.org/1999/02/22-rdf-syntax-ns#">
      <rdf:Description rdf:about=""/>
   </rdf:RDF>
</x:xmpmeta>
                                                                                                    
                                                                                                    
                                                                                                    
                                                                                                    
                                                                                                    
                                                                                                    
                                                                                                    
                                                                                                    
                                                                                                    
                                                                                                    
                                                                                                    
                                                                                                    
                                                                                                    
                                                                                                    
                                                                                                    
                                                                                                    
                                                                                                    
                                                                                                    
                                                                                                    
                                                                                                    
                           
<?xpacket end="w"?></metadata>
<defs>
    <style>
      .cls-1 {
        fill: #fff;
        fill-rule: evenodd;
      }
    </style>
  </defs>
  <path id="LOGO" class="cls-1" d="M58.283,13.925a4.812,4.812,0,0,1-1.772,1.425,5.5,5.5,0,0,1-2.334.474,5.15,5.15,0,0,1-4.012-1.706,6.433,6.433,0,0,1-1.534-4.475A6.311,6.311,0,0,1,50.222,5.1a5.677,5.677,0,0,1,4.311-1.665,5.4,5.4,0,0,1,3.4,1.02,4.194,4.194,0,0,1,1.582,2.837H57.9a2.826,2.826,0,0,0-1.1-1.836,3.738,3.738,0,0,0-2.266-.646,3.9,3.9,0,0,0-3.093,1.25,5.159,5.159,0,0,0-1.1,3.524A5.245,5.245,0,0,0,51.428,13.1a4.191,4.191,0,0,0,5.738.257,3.668,3.668,0,0,0,1.026-2.731V10.475H54.376V9.151h5.349V15.5H58.639l-0.356-1.573h0ZM62.636,15.5V6.946h1.438V8.48a2.836,2.836,0,0,1,.967-1.289,2.53,2.53,0,0,1,1.495-.427c0.11,0,.192,0,0.24,0a0.885,0.885,0,0,1,.15.022V8.306C66.886,8.3,66.843,8.3,66.792,8.292s-0.124,0-.223,0a2.464,2.464,0,0,0-1.82.627,2.478,2.478,0,0,0-.625,1.823V15.5H62.636Zm7.459-5.052H74.96A2.59,2.59,0,0,0,74.33,8.6a2.693,2.693,0,0,0-3.5-.014,2.93,2.93,0,0,0-.74,1.862h0Zm4.835,2.289H76.4a3.468,3.468,0,0,1-1.274,2.23,4.1,4.1,0,0,1-2.608.815,3.705,3.705,0,0,1-2.913-1.2,4.735,4.735,0,0,1-1.068-3.267A5.07,5.07,0,0,1,69.6,7.9a3.653,3.653,0,0,1,2.922-1.229A3.828,3.828,0,0,1,75.477,7.8,4.545,4.545,0,0,1,76.525,11c0,0.174,0,.3,0,0.39a2.161,2.161,0,0,1-.023.248H70.1a3.1,3.1,0,0,0,.7,2.09,2.719,2.719,0,0,0,3.365.286,2.072,2.072,0,0,0,.766-1.284h0Zm5.13-2.289h4.865a2.592,2.592,0,0,0-.63-1.848,2.693,2.693,0,0,0-3.5-.014,2.923,2.923,0,0,0-.74,1.862h0Zm4.834,2.289h1.472a3.466,3.466,0,0,1-1.274,2.23,4.093,4.093,0,0,1-2.608.815,3.7,3.7,0,0,1-2.912-1.2A4.732,4.732,0,0,1,78.5,11.315,5.068,5.068,0,0,1,79.562,7.9a3.651,3.651,0,0,1,2.921-1.229A3.828,3.828,0,0,1,85.441,7.8,4.543,4.543,0,0,1,86.49,11c0,0.174,0,.3,0,0.39a2.332,2.332,0,0,1-.022.248h-6.4a3.1,3.1,0,0,0,.7,2.09,2.719,2.719,0,0,0,3.365.286,2.074,2.074,0,0,0,.766-1.284h0Zm9.9,2.764V10.236a2.8,2.8,0,0,0-.4-1.745,1.712,1.712,0,0,0-1.379-.482,2.644,2.644,0,0,0-1.941.681,2.605,2.605,0,0,0-.692,1.938V15.5H88.888V6.946h1.425V8.192a3.314,3.314,0,0,1,1.215-1.1,3.535,3.535,0,0,1,1.632-.36,4.342,4.342,0,0,1,1.687.291,2.276,2.276,0,0,1,1.06.875,2.12,2.12,0,0,1,.3.73,7.036,7.036,0,0,1,.09,1.33V15.5H94.79Zm5.791-5.87a5.3,5.3,0,0,0,1.08,3.535,3.724,3.724,0,0,0,3,1.272,3.684,3.684,0,0,0,2.975-1.272,5.328,5.328,0,0,0,1.074-3.535,5.311,5.311,0,0,0-1.074-3.535,3.681,3.681,0,0,0-2.975-1.27,3.721,3.721,0,0,0-3,1.27,5.286,5.286,0,0,0-1.08,3.535h0Zm-1.712,0A6.4,6.4,0,0,1,100.4,5.074a6.309,6.309,0,0,1,8.485,0,6.418,6.418,0,0,1,1.528,4.557,6.425,6.425,0,0,1-1.528,4.556,6.306,6.306,0,0,1-8.485,0,6.407,6.407,0,0,1-1.535-4.556h0Zm14.48,5.87V8.088h-1.458V6.946h1.458V5.684a2.245,2.245,0,0,1,.5-1.592,1.97,1.97,0,0,1,1.5-.531q0.157,0,.4.024c0.161,0.017.395,0.044,0.7,0.087V4.965c-0.161-.025-0.293-0.047-0.4-0.06a2.12,2.12,0,0,0-.26-0.019,0.844,0.844,0,0,0-.728.281,1.9,1.9,0,0,0-.207,1.061V6.946h1.6V8.088h-1.6V15.5h-1.506Zm5.172,0V8.088h-1.457V6.946h1.457V5.684a2.241,2.241,0,0,1,.5-1.592,1.967,1.967,0,0,1,1.5-.531c0.1,0,.237.008,0.395,0.024s0.395,0.044.7,0.087V4.965c-0.161-.025-0.294-0.047-0.4-0.06a2.106,2.106,0,0,0-.259-0.019,0.846,0.846,0,0,0-.729.281,1.908,1.908,0,0,0-.206,1.061V6.946h1.6V8.088h-1.6V15.5h-1.507Zm4.848-10.124V3.736h1.489V5.374h-1.489Zm0,10.124V6.946h1.489V15.5h-1.489Zm10.346-5.706a1.828,1.828,0,0,0-.658-1.355,2.52,2.52,0,0,0-1.619-.475,2.233,2.233,0,0,0-1.865.839,3.81,3.81,0,0,0-.658,2.4,3.97,3.97,0,0,0,.633,2.409,2.105,2.105,0,0,0,1.791.848,2.521,2.521,0,0,0,1.667-.521,2.32,2.32,0,0,0,.774-1.509H135.2a3.4,3.4,0,0,1-1.15,2.456,4.14,4.14,0,0,1-2.78.883,3.572,3.572,0,0,1-2.859-1.2,4.906,4.906,0,0,1-1.04-3.306,4.882,4.882,0,0,1,1.085-3.366,3.783,3.783,0,0,1,2.978-1.218,4.038,4.038,0,0,1,2.678.842,3.018,3.018,0,0,1,1.071,2.282h-1.472Zm4.842,0.654h4.865a2.591,2.591,0,0,0-.629-1.848,2.694,2.694,0,0,0-3.5-.014,2.931,2.931,0,0,0-.74,1.862h0Zm4.835,2.289h1.471a3.466,3.466,0,0,1-1.273,2.23,4.1,4.1,0,0,1-2.609.815,3.706,3.706,0,0,1-2.913-1.2A4.734,4.734,0,0,1,137,11.315,5.072,5.072,0,0,1,138.06,7.9a3.651,3.651,0,0,1,2.921-1.229A3.827,3.827,0,0,1,143.939,7.8a4.544,4.544,0,0,1,1.049,3.2c0,0.174,0,.3,0,0.39a2.471,2.471,0,0,1-.022.248h-6.4a3.1,3.1,0,0,0,.695,2.09,2.72,2.72,0,0,0,3.365.286A2.076,2.076,0,0,0,143.392,12.734ZM30.341,1.26l9.75,4.246V26.057h-9.75V1.26ZM1.274,24.841H27.88V2.533L1.274,8.984V24.841h0Zm27.235,1.211H0.017V8.041l0.476-.115L28.357,1.17l0.78-.189V26.052H28.509ZM13.278,5.733V25.446H12.02V5.733h1.257Zm15.217,9.591L0.69,17.251,0.6,16.044l27.805-1.928ZM50.128,26.034V23.358h1.936a2.533,2.533,0,0,0,.931-0.164,1.975,1.975,0,0,0,.686-0.439,1.9,1.9,0,0,0,.426-0.646,2.083,2.083,0,0,0,.146-0.781,2.11,2.11,0,0,0-.145-0.781,1.9,1.9,0,0,0-.423-0.646A1.983,1.983,0,0,0,53,19.46a2.593,2.593,0,0,0-.934-0.162H49.258v6.736h0.869Zm1.832-3.423H50.128V20.045H51.96a1.588,1.588,0,0,1,.73.164,1.206,1.206,0,0,1,.487.449,1.362,1.362,0,0,1,0,1.339,1.215,1.215,0,0,1-.487.448,1.6,1.6,0,0,1-.73.165h0Zm5.614,3.544a2.629,2.629,0,0,0,1.04-.2A2.308,2.308,0,0,0,59.4,25.4a2.432,2.432,0,0,0,.5-0.816,2.941,2.941,0,0,0,0-1.993,2.433,2.433,0,0,0-.5-0.811,2.283,2.283,0,0,0-.788-0.547,2.808,2.808,0,0,0-2.081,0,2.3,2.3,0,0,0-.788.547,2.448,2.448,0,0,0-.5.811,2.938,2.938,0,0,0,0,1.993,2.446,2.446,0,0,0,.5.816,2.326,2.326,0,0,0,.788.55,2.629,2.629,0,0,0,1.04.2h0Zm0-.676a1.648,1.648,0,0,1-.717-0.155,1.539,1.539,0,0,1-.525-0.415,1.874,1.874,0,0,1-.323-0.6,2.368,2.368,0,0,1,0-1.429,1.858,1.858,0,0,1,.323-0.6,1.508,1.508,0,0,1,.525-0.412,1.739,1.739,0,0,1,1.434,0,1.51,1.51,0,0,1,.525.412,1.867,1.867,0,0,1,.322.6,2.366,2.366,0,0,1,0,1.429,1.883,1.883,0,0,1-.322.6,1.541,1.541,0,0,1-.525.415,1.649,1.649,0,0,1-.717.155h0Zm9.08,0.555,1.612-4.878H67.438L66.2,25.044l-1.319-3.888H64.2l-1.329,3.888-1.235-3.888H60.821l1.612,4.878h0.785l1.319-3.918,1.319,3.918h0.8Zm4.933,0.121a3.136,3.136,0,0,0,1.119-.2A2.677,2.677,0,0,0,73.6,25.4L73.22,24.9a2.048,2.048,0,0,1-.459.341,2.273,2.273,0,0,1-.534.212,2.3,2.3,0,0,1-.578.072,1.962,1.962,0,0,1-.733-0.134,1.679,1.679,0,0,1-.558-0.364,1.732,1.732,0,0,1-.363-0.537,1.945,1.945,0,0,1-.157-0.651h4.083V23.651a3.164,3.164,0,0,0-.164-1.027,2.489,2.489,0,0,0-.477-0.83,2.194,2.194,0,0,0-.765-0.557,2.648,2.648,0,0,0-2.022,0,2.364,2.364,0,0,0-.788.547,2.5,2.5,0,0,0-.519.811,2.723,2.723,0,0,0-.186,1,2.812,2.812,0,0,0,.192,1.043,2.362,2.362,0,0,0,.536.811,2.419,2.419,0,0,0,.818.524,2.869,2.869,0,0,0,1.04.187h0Zm1.56-2.878H69.828a1.878,1.878,0,0,1,.124-0.564,1.793,1.793,0,0,1,.314-0.52,1.541,1.541,0,0,1,.51-0.384,1.664,1.664,0,0,1,.707-0.148,1.832,1.832,0,0,1,.614.1,1.479,1.479,0,0,1,.466.262,1.541,1.541,0,0,1,.326.376,1.736,1.736,0,0,1,.258.878h0ZM76.1,26.034V22.581a1.206,1.206,0,0,1,.245-0.288,2.1,2.1,0,0,1,.747-0.424,1.313,1.313,0,0,1,.39-0.066c0.058,0,.11,0,0.159.007l0.145,0.014V21.045a1.868,1.868,0,0,0-.653.118,2.23,2.23,0,0,0-.569.317,2.738,2.738,0,0,0-.464.454V21.156H75.316v4.878H76.1Zm5.09,0.121a3.135,3.135,0,0,0,1.119-.2A2.67,2.67,0,0,0,83.2,25.4L82.825,24.9a2.058,2.058,0,0,1-.459.341,2.281,2.281,0,0,1-.534.212,2.308,2.308,0,0,1-.577.072,1.959,1.959,0,0,1-.733-0.134,1.672,1.672,0,0,1-.558-0.364,1.737,1.737,0,0,1-.363-0.537,1.95,1.95,0,0,1-.157-0.651h4.083V23.651a3.148,3.148,0,0,0-.164-1.027,2.476,2.476,0,0,0-.476-0.83,2.193,2.193,0,0,0-.764-0.557,2.648,2.648,0,0,0-2.022,0,2.375,2.375,0,0,0-.789.547,2.5,2.5,0,0,0-.518.811,2.732,2.732,0,0,0-.187,1,2.828,2.828,0,0,0,.192,1.043,2.372,2.372,0,0,0,.536.811,2.408,2.408,0,0,0,.819.524,2.865,2.865,0,0,0,1.04.187h0Zm1.56-2.878H79.433a1.892,1.892,0,0,1,.123-0.564,1.8,1.8,0,0,1,.315-0.52,1.545,1.545,0,0,1,.509-0.384,1.667,1.667,0,0,1,.707-0.148,1.83,1.83,0,0,1,.614.1,1.468,1.468,0,0,1,.466.262,1.543,1.543,0,0,1,.327.376,1.691,1.691,0,0,1,.192.436,1.746,1.746,0,0,1,.066.443h0Zm6.619,2.757V19.3H88.585v2.6a2.192,2.192,0,0,0-.473-0.461,2.089,2.089,0,0,0-.579-0.293,2.052,2.052,0,0,0-.654-0.1,2.268,2.268,0,0,0-.907.18,2.023,2.023,0,0,0-.712.515,2.375,2.375,0,0,0-.466.808,3.513,3.513,0,0,0,0,2.131,2.316,2.316,0,0,0,.466.8,1.969,1.969,0,0,0,.712.507,2.334,2.334,0,0,0,.907.177,2.12,2.12,0,0,0,1.255-.409,2.126,2.126,0,0,0,.452-0.44v0.727h0.785Zm-2.293-.555a1.659,1.659,0,0,1-.687-0.141,1.451,1.451,0,0,1-.515-0.393,1.758,1.758,0,0,1-.319-0.6,2.575,2.575,0,0,1,0-1.5,1.791,1.791,0,0,1,.319-0.6,1.457,1.457,0,0,1,.515-0.4,1.631,1.631,0,0,1,.687-0.142,1.8,1.8,0,0,1,.606.109,1.989,1.989,0,0,1,.527.286,1.54,1.54,0,0,1,.375.392v2.2a1.546,1.546,0,0,1-.375.391,1.977,1.977,0,0,1-.527.279,1.808,1.808,0,0,1-.606.108h0Zm6.946-.767V22.5a1.542,1.542,0,0,1,.375-0.392,2.015,2.015,0,0,1,.53-0.286,1.836,1.836,0,0,1,.613-0.109,1.614,1.614,0,0,1,.682.142,1.448,1.448,0,0,1,.51.4,1.769,1.769,0,0,1,.321.6,2.608,2.608,0,0,1,0,1.5,1.737,1.737,0,0,1-.321.6,1.442,1.442,0,0,1-.51.393,1.642,1.642,0,0,1-.682.141,1.932,1.932,0,0,1-.613-0.1A1.967,1.967,0,0,1,94.4,25.1a1.471,1.471,0,0,1-.375-0.386h0Zm0,1.322V25.307a2.131,2.131,0,0,0,.452.44,2.116,2.116,0,0,0,1.255.409,2.35,2.35,0,0,0,.909-0.177,2,2,0,0,0,.712-0.507,2.336,2.336,0,0,0,.464-0.8,3.526,3.526,0,0,0,0-2.131,2.375,2.375,0,0,0-.462-0.808,2.031,2.031,0,0,0-.712-0.515,2.291,2.291,0,0,0-.913-0.18,2.065,2.065,0,0,0-.654.1,2.089,2.089,0,0,0-.579.293,2.2,2.2,0,0,0-.473.461V19.3H93.238v6.736h0.785Zm5.091,1.909a1.642,1.642,0,0,0,.168.037C99.352,27.99,99.42,28,99.489,28s0.132,0.009.19,0.009a1.845,1.845,0,0,0,.616-0.1,1.362,1.362,0,0,0,.5-0.317,1.8,1.8,0,0,0,.371-0.569l2.534-5.868h-0.848l-1.686,4-1.675-4H98.633l2.115,4.928-0.335.737a1.127,1.127,0,0,1-.2.313,0.6,0.6,0,0,1-.248.158,0.91,0.91,0,0,1-.309.044,1.158,1.158,0,0,1-.218-0.022,1.015,1.015,0,0,1-.211-0.058l-0.114.686h0Zm10.914-1.787a3.771,3.771,0,0,0,1.413-.264,3.233,3.233,0,0,0,1.81-1.836,3.91,3.91,0,0,0,0-2.767,3.242,3.242,0,0,0-.712-1.1,3.206,3.206,0,0,0-1.1-.732,3.905,3.905,0,0,0-2.825,0,3.18,3.18,0,0,0-1.094.732,3.262,3.262,0,0,0-.708,1.1,3.924,3.924,0,0,0,0,2.767,3.265,3.265,0,0,0,.708,1.1,3.214,3.214,0,0,0,1.094.732,3.765,3.765,0,0,0,1.412.264h0Zm0-.747a2.674,2.674,0,0,1-1.063-.207,2.331,2.331,0,0,1-.809-0.574,2.552,2.552,0,0,1-.514-0.868,3.407,3.407,0,0,1,0-2.18,2.531,2.531,0,0,1,.514-0.867,2.336,2.336,0,0,1,.809-0.572,2.852,2.852,0,0,1,2.124,0,2.353,2.353,0,0,1,.811.572,2.513,2.513,0,0,1,.52.867,3.319,3.319,0,0,1,0,2.18,2.534,2.534,0,0,1-.52.868,2.348,2.348,0,0,1-.811.574,2.682,2.682,0,0,1-1.061.207h0Zm10.022,0.626-1.885-2.747a2.215,2.215,0,0,0,.687-0.17,1.955,1.955,0,0,0,.582-0.386,1.826,1.826,0,0,0,.4-0.6,2.243,2.243,0,0,0-.014-1.648,1.831,1.831,0,0,0-.456-0.639,2.013,2.013,0,0,0-.7-0.405,2.634,2.634,0,0,0-.883-0.143h-2.806v6.736h0.869V23.358h1.4l1.77,2.676h1.026Zm-2.367-3.413h-1.832V20.045h1.832a1.623,1.623,0,0,1,.732.162,1.2,1.2,0,0,1,.491.448,1.347,1.347,0,0,1,0,1.345,1.233,1.233,0,0,1-.491.454,1.588,1.588,0,0,1-.732.167h0Zm6.871,3.413L127.36,19.3h-1l-2.356,5.816L121.653,19.3h-0.994l2.816,6.736h1.079Zm4.713,0V19.3H128.4v6.736h0.869Zm4.944,0A2.452,2.452,0,0,0,135.3,25.8a1.623,1.623,0,0,0,.69-0.636,1.889,1.889,0,0,0,.239-0.951,1.644,1.644,0,0,0-.109-0.584,1.752,1.752,0,0,0-.293-0.5,1.673,1.673,0,0,0-.433-0.376,1.416,1.416,0,0,0-.526-0.192,1.522,1.522,0,0,0,.46-0.178,1.507,1.507,0,0,0,.391-0.325,1.485,1.485,0,0,0,.272-0.461,1.656,1.656,0,0,0,.1-0.581,1.691,1.691,0,0,0-.238-0.893,1.6,1.6,0,0,0-.673-0.6,2.36,2.36,0,0,0-1.047-.221h-3.11v6.736h3.183Zm-0.22-3.817H131.9V20.045h2.094a1.387,1.387,0,0,1,.662.148,0.99,0.99,0,0,1,.4.391,1.169,1.169,0,0,1,0,1.106,0.975,0.975,0,0,1-.4.384,1.448,1.448,0,0,1-.662.143h0Zm0.052,3.07H131.9V22.964h2.146a1.583,1.583,0,0,1,.559.094,1.162,1.162,0,0,1,.4.256,1.06,1.06,0,0,1,.245.37,1.224,1.224,0,0,1,.081.441,1.188,1.188,0,0,1-.155.619,1.012,1.012,0,0,1-.439.4,1.619,1.619,0,0,1-.694.141h0Zm6.881,0.869a3.772,3.772,0,0,0,1.414-.264,3.235,3.235,0,0,0,1.809-1.836,3.91,3.91,0,0,0,0-2.767,3.242,3.242,0,0,0-.712-1.1,3.2,3.2,0,0,0-1.1-.732,3.908,3.908,0,0,0-2.826,0,3.19,3.19,0,0,0-1.094.732,3.262,3.262,0,0,0-.708,1.1,3.939,3.939,0,0,0,0,2.767,3.265,3.265,0,0,0,.708,1.1,3.224,3.224,0,0,0,1.094.732,3.769,3.769,0,0,0,1.412.264h0Zm0-.747a2.678,2.678,0,0,1-1.063-.207,2.34,2.34,0,0,1-.809-0.574,2.55,2.55,0,0,1-.513-0.868,3.389,3.389,0,0,1,0-2.18,2.529,2.529,0,0,1,.513-0.867,2.346,2.346,0,0,1,.809-0.572,2.852,2.852,0,0,1,2.124,0,2.344,2.344,0,0,1,.811.572,2.515,2.515,0,0,1,.521.867,3.336,3.336,0,0,1,0,2.18,2.536,2.536,0,0,1-.521.868,2.338,2.338,0,0,1-.811.574A2.679,2.679,0,0,1,140.924,25.408Z"/>
</svg>
